<?xml version="1.0" encoding="utf-8"?>
<!-- Generator: Adobe Illustrator 15.1.0, SVG Export Plug-In . SVG Version: 6.00 Build 0)  -->
<!DOCTYPE svg PUBLIC "-//W3C//DTD SVG 1.1//EN" "http://www.w3.org/Graphics/SVG/1.1/DTD/svg11.dtd">
<svg version="1.1" id="Layer_1" xmlns="http://www.w3.org/2000/svg" xmlns:xlink="http://www.w3.org/1999/xlink" x="0px" y="0px"
	 width="280px" height="280px" viewBox="0 0 280 280" enable-background="new 0 0 280 280" xml:space="preserve">
<g>
	<path fill="#055EAA" d="M280.49,140.028c0,77.309-62.67,140.005-139.993,140.005c-77.335,0-140.007-62.696-140.007-140.005
		C0.49,62.709,63.162,0.043,140.497,0.043C217.82,0.043,280.49,62.709,280.49,140.028z M140.497,42.022
		c-54.133,0-98.01,43.89-98.01,98.006c0,54.132,43.877,98.017,98.01,98.017c54.119,0,97.984-43.885,97.984-98.017
		C238.481,85.912,194.616,42.022,140.497,42.022z"/>
	<path fill="#FFFFFF" d="M238.481,140.028c0,54.132-43.865,98.017-97.984,98.017c-54.133,0-98.01-43.885-98.01-98.017
		c0-54.117,43.877-98.006,98.01-98.006C194.616,42.022,238.481,85.912,238.481,140.028z"/>
	<path fill="none" stroke="#FFFFFF" stroke-width="0.5055" stroke-miterlimit="10" d="M280.49,140.028
		c0,77.309-62.67,140.005-139.993,140.005c-77.335,0-140.007-62.696-140.007-140.005C0.49,62.709,63.162,0.043,140.497,0.043
		C217.82,0.043,280.49,62.709,280.49,140.028z"/>
	<path fill="#055EAA" d="M117.657,77.327c3.667,8.447,1.771,18.026-4.79,24.533c-5.616,5.476-13.509,7.118-21.188,5.537
		c-6.814-1.44-13.375-7.564-15.449-14.196c-2.897-8.725-0.125-18.136,6.623-23.749c6.242-5.864,16.711-6.636,24.22-3.024
		C111.527,68.508,115.63,72.919,117.657,77.327"/>
	<path fill="#055EAA" stroke="#FFFFFF" stroke-width="6.5721" stroke-linejoin="round" stroke-miterlimit="10" d="M125.724,111.656
		c14.497-2.951,28.059-8.42,41.128-15.118l-1.849,3.769l-14.813,26.795c3.099,1.839,6.947,2.461,10.48,3.671
		c25.916,6.301,54.285,1.389,77.731-6.688L192.01,214.77l-3.025,6.053h-3.55l-31.585-56.496
		c-4.289-6.889-7.887-14.052-12.111-21.002l-1.079,1.508l-42.163,76.125h-3.533L33.668,111.656L21.87,90.981
		C50.636,111.915,89.663,120.439,125.724,111.656"/>
	<path fill="#055EAA" d="M125.724,111.656c14.497-2.951,28.059-8.42,41.128-15.118l-1.849,3.769l-14.813,26.795
		c3.099,1.839,6.947,2.461,10.48,3.671c25.916,6.301,54.285,1.389,77.731-6.688L192.01,214.77l-3.025,6.053h-3.55l-31.585-56.496
		c-4.289-6.889-7.887-14.052-12.111-21.002l-1.079,1.508l-42.163,76.125h-3.533L33.668,111.656L21.87,90.981
		C50.636,111.915,89.663,120.439,125.724,111.656"/>
	<path fill="#055EAA" d="M201.641,105.45c1.904,5.098,1.32,10.654-1.83,15.01c-3.703,5.036-9.954,7.304-16.122,5.866
		c-5.304-1.01-10.151-6.248-11.228-11.474c-1.085-5.556,0.611-11.291,4.973-15.019c3.777-3.538,9.445-4.271,14.367-3.149
		C195.973,97.758,199.874,101.529,201.641,105.45"/>
	<g>
		<path fill="#FFFFFF" d="M36.721,69.234l9.412,4.33l2.515,1.294l-1.854-2.075l-6.814-7.774l2.361-3.057l9.263,4.502l2.535,1.284
			l-1.79-2.077l-6.621-8.079l2.291-2.969l10.887,14.665l-2.134,2.804l-9.466-4.616l-3.063-1.583l2.315,2.563l6.846,7.987
			l-2.079,2.711L34.34,72.327L36.721,69.234z"/>
		<path fill="#FFFFFF" d="M54.329,48.895l3.063-2.803l16.494,8.759l-2.953,2.703l-3.297-1.883l-4.772,4.374l1.569,3.472
			l-2.843,2.595L54.329,48.895z M61.556,57.146l3.319-3.061l-6.318-3.597L61.556,57.146z"/>
		<path fill="#FFFFFF" d="M74.472,33.155l1.789,2.547l-4.304,3.033l8.317,11.854l-3.045,2.119L68.93,40.86l-4.333,3.041
			l-1.789-2.563L74.472,33.155z"/>
		<path fill="#FFFFFF" d="M91.26,27.875l-8.315,4.201l1.71,3.339l7.609-3.877l1.378,2.725l-7.61,3.881l2.045,4.028l8.683-4.407
			l1.44,2.829l-11.894,6.034l-7.979-15.699l11.528-5.848L91.26,27.875z"/>
		<path fill="#FFFFFF" d="M105.929,19.864c0.696,0.046,1.351,0.269,1.938,0.655c0.502,0.304,0.93,0.686,1.307,1.126
			c0.38,0.438,0.67,1.004,0.876,1.663c0.265,0.798,0.327,1.645,0.18,2.545c-0.151,0.889-0.646,1.657-1.468,2.269
			c0.868,0.062,1.557,0.333,2.073,0.789c0.51,0.482,0.952,1.302,1.334,2.461l0.369,1.124c0.238,0.772,0.446,1.281,0.595,1.537
			c0.234,0.404,0.549,0.636,0.959,0.74l0.128,0.414l-3.854,1.254c-0.228-0.326-0.402-0.602-0.524-0.826
			c-0.244-0.432-0.44-0.892-0.624-1.392l-0.528-1.541c-0.35-1.064-0.762-1.719-1.24-1.961c-0.464-0.232-1.185-0.196-2.156,0.114
			l-3.414,1.109L104,38.507l-3.423,1.125l-5.441-16.748l8.016-2.597C104.299,19.913,105.227,19.782,105.929,19.864z M99.509,24.68
			l1.461,4.5l3.755-1.227c0.758-0.25,1.287-0.52,1.599-0.822c0.558-0.536,0.684-1.26,0.383-2.208
			c-0.34-1.004-0.866-1.595-1.624-1.737c-0.427-0.064-0.994-0.004-1.723,0.234L99.509,24.68z"/>
		<path fill="#FFFFFF" d="M114.048,17.302l3.615-0.608l2.401,14.243l8.667-1.464l0.524,3.119l-12.294,2.063L114.048,17.302z"/>
		<path fill="#FFFFFF" d="M144.488,30.584c-1.292,1.397-3.207,2.113-5.731,2.153c-2.507,0.03-4.438-0.604-5.79-1.951
			c-1.811-1.65-2.751-4.063-2.81-7.221c-0.048-3.243,0.796-5.647,2.556-7.294c1.314-1.409,3.221-2.121,5.733-2.152
			c2.531-0.042,4.452,0.596,5.792,1.944c1.814,1.593,2.73,3.993,2.797,7.225C147.084,26.441,146.239,28.876,144.488,30.584z
			 M142.15,27.947c0.834-1.088,1.236-2.623,1.208-4.612c-0.032-1.966-0.499-3.481-1.364-4.551c-0.861-1.066-2.045-1.568-3.504-1.548
			c-1.44,0.018-2.608,0.572-3.453,1.665c-0.848,1.088-1.256,2.628-1.219,4.611c0.026,1.973,0.496,3.493,1.374,4.556
			c0.893,1.064,2.051,1.583,3.52,1.548C140.163,29.594,141.319,29.038,142.15,27.947z"/>
		<path fill="#FFFFFF" d="M163.271,32.875c-1.533,1.159-3.525,1.53-6.014,1.157c-2.504-0.388-4.295-1.361-5.398-2.929
			c-1.498-1.927-2.015-4.448-1.52-7.571c0.505-3.215,1.752-5.446,3.767-6.774c1.522-1.141,3.507-1.525,6.014-1.133
			c2.485,0.386,4.271,1.359,5.376,2.911c1.502,1.869,2.015,4.387,1.511,7.585C166.51,29.248,165.268,31.494,163.271,32.875z
			 M161.398,29.88c1.015-0.937,1.669-2.369,1.969-4.324c0.318-1.957,0.122-3.525-0.561-4.73c-0.686-1.2-1.725-1.906-3.183-2.112
			c-1.422-0.234-2.673,0.105-3.688,1.03c-1.011,0.942-1.681,2.393-1.999,4.341c-0.3,1.958-0.092,3.54,0.595,4.72
			c0.694,1.204,1.763,1.903,3.19,2.137C159.178,31.17,160.366,30.814,161.398,29.88z"/>
		<path fill="#FFFFFF" d="M191.993,26.091c0.481,0.49,0.837,1.098,1.034,1.748c0.188,0.552,0.26,1.132,0.26,1.714
			c-0.008,0.579-0.129,1.203-0.397,1.825c-0.315,0.785-0.829,1.467-1.519,2.045c-0.698,0.601-1.559,0.848-2.592,0.792
			c0.635,0.604,0.979,1.258,1.073,1.944c0.09,0.678-0.114,1.601-0.576,2.739l-0.446,1.09c-0.318,0.752-0.488,1.258-0.536,1.563
			c-0.082,0.446,0,0.848,0.233,1.172l-0.162,0.404l-3.746-1.541c0.027-0.404,0.084-0.708,0.142-0.958
			c0.072-0.502,0.252-0.97,0.431-1.472l0.584-1.513c0.414-1.048,0.532-1.807,0.334-2.305c-0.212-0.472-0.78-0.926-1.727-1.302
			l-3.326-1.371l-2.613,6.378l-3.336-1.371l6.692-16.282l7.788,3.217C190.689,25.081,191.489,25.579,191.993,26.091z
			 M183.957,25.603l-1.779,4.368l3.659,1.506c0.719,0.298,1.291,0.432,1.729,0.41c0.775-0.038,1.344-0.524,1.727-1.451
			c0.406-0.976,0.373-1.771-0.123-2.361c-0.268-0.328-0.738-0.65-1.459-0.94L183.957,25.603z"/>
		<path fill="#FFFFFF" d="M209.39,38.759l-7.972-4.808l-1.924,3.218l7.301,4.409l-1.593,2.613l-7.301-4.416l-2.335,3.875l8.337,5.03
			l-1.645,2.717l-11.416-6.906l9.104-15.057l11.055,6.672L209.39,38.759z"/>
		<path fill="#FFFFFF" d="M220.992,51.063c0.563-1.095,0.579-2.179,0.055-3.227c-0.287-0.606-0.714-1.146-1.277-1.615
			c-1.085-0.914-2.315-1.247-3.699-1.033c-1.389,0.236-2.788,1.173-4.168,2.812c-1.389,1.65-1.997,3.143-1.818,4.451
			c0.178,1.331,0.73,2.399,1.714,3.213c0.925,0.794,1.933,1.158,2.983,1.136c1.064-0.022,2.026-0.422,2.917-1.174l-3.114-2.641
			l1.9-2.239l5.604,4.718l-6.104,7.221l-1.847-1.557l1.129-1.922c-1.072,0.172-1.945,0.21-2.6,0.12
			c-1.12-0.186-2.217-0.732-3.305-1.632c-1.778-1.503-2.721-3.363-2.822-5.558c-0.139-2.229,0.693-4.428,2.504-6.586
			c1.845-2.176,3.92-3.409,6.23-3.713c2.307-0.314,4.434,0.362,6.408,2.049c1.709,1.431,2.729,3.029,3.029,4.776
			c0.292,1.729-0.012,3.319-0.959,4.738L220.992,51.063z"/>
		<path fill="#FFFFFF" d="M220.594,67.864l-2.489-2.665l12.868-12.002l2.485,2.665L220.594,67.864z"/>
		<path fill="#FFFFFF" d="M232.31,80.292c-1.897-0.274-3.595-1.404-5.056-3.445c-1.503-2.027-2.089-3.979-1.764-5.862
			c0.293-2.439,1.729-4.588,4.28-6.444c2.591-1.911,5.06-2.607,7.431-2.139c1.877,0.267,3.592,1.406,5.048,3.441
			c1.474,2.031,2.066,4.003,1.751,5.864c-0.261,2.403-1.682,4.532-4.279,6.438C237.169,80.01,234.692,80.728,232.31,80.292z
			 M233.084,76.851c1.38,0.056,2.855-0.499,4.455-1.667c1.613-1.171,2.588-2.411,2.932-3.746c0.377-1.314,0.134-2.583-0.727-3.747
			c-0.86-1.183-1.991-1.801-3.363-1.863c-1.389-0.06-2.875,0.482-4.457,1.651c-1.609,1.18-2.588,2.43-2.934,3.769
			c-0.348,1.334-0.096,2.585,0.764,3.753C230.607,76.185,231.719,76.794,233.084,76.851z"/>
		<path fill="#FFFFFF" d="M249.543,77.713l1.721,3.441l-7.848,11.74l10.979-5.492l1.531,3.059l-15.744,7.887l-1.648-3.291l7.967-12
			l-11.157,5.588l-1.522-3.058L249.543,77.713z"/>
	</g>
	<g>
		<path fill="#FFFFFF" d="M34.308,172.904c-0.048,1.305-0.5,2.457-1.336,3.498c-0.68,0.82-1.491,1.475-2.409,1.957
			c-0.927,0.495-1.823,0.869-2.723,1.092c-2.253,0.63-4.29,0.697-6.118,0.232c-2.445-0.65-4.015-2.241-4.724-4.809l-2.024-7.322
			l16.963-4.682l2.019,7.301C34.24,171.236,34.354,172.146,34.308,172.904z M29.929,167.123l-11.066,3.049l0.911,3.277
			c0.458,1.69,1.615,2.633,3.445,2.83c1.011,0.114,2.139-0.008,3.38-0.365c1.742-0.463,2.985-1.109,3.747-1.908
			c0.776-0.783,0.94-1.998,0.5-3.606L29.929,167.123z"/>
		<path fill="#FFFFFF" d="M21.958,189.227l-1.348-3.404l16.35-6.521l1.358,3.395L21.958,189.227z"/>
		<path fill="#FFFFFF" d="M29.907,193.742c-0.661,0.466-1.099,0.95-1.281,1.412c-0.368,0.887-0.206,1.982,0.479,3.281
			c0.41,0.797,0.824,1.381,1.271,1.779c0.794,0.771,1.656,0.914,2.531,0.441c0.516-0.246,0.794-0.693,0.836-1.295
			c0.028-0.592-0.108-1.453-0.408-2.551l-0.498-1.893c-0.507-1.834-0.721-3.191-0.614-4.035c0.172-1.413,1.03-2.543,2.557-3.348
			c1.395-0.73,2.821-0.828,4.286-0.283c1.464,0.548,2.713,1.828,3.767,3.801c0.858,1.665,1.168,3.313,0.904,4.945
			c-0.236,1.633-1.179,2.918-2.813,3.834l-1.638-3.143c0.896-0.537,1.362-1.299,1.346-2.281c-0.028-0.658-0.222-1.373-0.632-2.152
			c-0.446-0.854-0.975-1.459-1.596-1.791c-0.592-0.346-1.212-0.354-1.815-0.027c-0.556,0.291-0.834,0.758-0.838,1.412
			c-0.01,0.422,0.126,1.23,0.428,2.416l0.794,3.062c0.332,1.345,0.442,2.444,0.278,3.294c-0.244,1.316-1.072,2.322-2.455,3.07
			c-1.412,0.738-2.889,0.799-4.413,0.193c-1.51-0.592-2.801-1.908-3.862-3.922c-1.064-2.06-1.454-3.91-1.142-5.566
			c0.31-1.679,1.272-2.93,2.893-3.773L29.907,193.742z"/>
		<path fill="#FFFFFF" d="M54.443,210.018l-2.549,1.795l-3.049-4.279l-11.812,8.396l-2.127-3.014l11.79-8.396l-3.059-4.313
			l2.526-1.803L54.443,210.018z"/>
		<path fill="#FFFFFF" d="M62.826,219.64c0.244,0.658,0.31,1.341,0.244,2.039c-0.076,0.576-0.226,1.124-0.478,1.656
			c-0.25,0.54-0.61,1.032-1.112,1.507c-0.599,0.59-1.355,1.008-2.213,1.246c-0.894,0.252-1.783,0.131-2.695-0.332
			c0.329,0.816,0.384,1.543,0.194,2.209c-0.212,0.666-0.771,1.4-1.671,2.263l-0.858,0.809c-0.572,0.563-0.949,0.966-1.107,1.192
			c-0.264,0.383-0.364,0.784-0.26,1.183l-0.326,0.304l-2.795-2.931c0.214-0.362,0.382-0.626,0.524-0.825
			c0.288-0.41,0.632-0.8,0.99-1.166l1.179-1.128c0.802-0.801,1.205-1.459,1.223-1.983c0.01-0.518-0.318-1.152-1.041-1.891
			l-2.475-2.625l-4.987,4.76l-2.477-2.606l12.763-12.103l5.788,6.084C62.045,218.203,62.578,218.974,62.826,219.64z M55.706,215.914
			l-3.427,3.264l2.717,2.875c0.55,0.557,1.012,0.926,1.418,1.08c0.719,0.276,1.453,0.064,2.161-0.618
			c0.782-0.729,1.072-1.477,0.862-2.208c-0.112-0.423-0.42-0.885-0.947-1.459L55.706,215.914z"/>
		<path fill="#FFFFFF" d="M58.742,238.912l-2.776-2.366l11.404-13.393l2.799,2.358L58.742,238.912z"/>
		<path fill="#FFFFFF" d="M72.854,230.126c1.997-0.398,3.901,0.024,5.7,1.259c2.422,1.637,3.657,3.646,3.675,6.01
			c0.004,1.328-0.284,2.457-0.852,3.395l-3.053-2.066c0.286-0.824,0.396-1.522,0.352-2.099c-0.122-0.985-0.704-1.853-1.77-2.567
			c-1.084-0.744-2.257-0.887-3.463-0.406c-1.255,0.463-2.419,1.503-3.525,3.144c-1.106,1.633-1.613,3.062-1.504,4.323
			c0.11,1.273,0.672,2.247,1.683,2.938c1.044,0.706,2.066,0.893,3.097,0.576c0.554-0.154,1.208-0.557,1.9-1.179l3.021,2.061
			c-1.341,1.417-2.877,2.257-4.626,2.513c-1.759,0.269-3.459-0.166-5.138-1.316c-2.069-1.404-3.233-3.175-3.503-5.336
			c-0.264-2.155,0.398-4.4,1.989-6.74C68.568,232.074,70.583,230.58,72.854,230.126z"/>
		<path fill="#FFFFFF" d="M98.212,242.607l-1.378,2.795l-4.732-2.314l-6.394,13.011l-3.313-1.648l6.395-12.991l-4.756-2.334
			l1.373-2.803L98.212,242.607z"/>
		<path fill="#FFFFFF" d="M105.877,258c-0.102,0.804-0.028,1.428,0.184,1.908c0.408,0.844,1.331,1.452,2.751,1.83
			c0.868,0.232,1.588,0.309,2.163,0.276c1.108-0.08,1.791-0.604,2.042-1.57c0.142-0.595,0.008-1.077-0.404-1.511
			c-0.418-0.414-1.135-0.902-2.165-1.426l-1.723-0.865c-1.718-0.895-2.841-1.645-3.395-2.283c-0.946-1.088-1.203-2.469-0.771-4.137
			c0.4-1.519,1.302-2.635,2.685-3.371c1.383-0.711,3.161-0.801,5.34-0.206c1.811,0.454,3.239,1.349,4.273,2.631
			c1.041,1.278,1.356,2.847,0.933,4.661l-3.417-0.888c0.196-1.036-0.054-1.881-0.809-2.543c-0.502-0.427-1.156-0.769-2.006-0.982
			c-0.924-0.24-1.727-0.256-2.391-0.021c-0.662,0.203-1.074,0.675-1.24,1.322c-0.156,0.607,0,1.143,0.462,1.581
			c0.3,0.296,1.013,0.714,2.077,1.286l2.812,1.486c1.23,0.659,2.101,1.325,2.617,2.008c0.814,1.068,1.022,2.35,0.63,3.881
			c-0.406,1.557-1.351,2.697-2.823,3.395c-1.479,0.715-3.301,0.789-5.496,0.229c-2.253-0.602-3.867-1.561-4.896-2.925
			c-1.01-1.322-1.29-2.899-0.83-4.661L105.877,258z"/>
		<path fill="#FFFFFF" d="M123.073,251.331c1.559-1.271,3.431-1.814,5.614-1.593c2.907,0.338,4.938,1.502,6.07,3.6
			c0.636,1.16,0.909,2.28,0.842,3.403l-3.645-0.398c-0.158-0.878-0.376-1.553-0.71-1.995c-0.566-0.824-1.473-1.336-2.761-1.467
			c-1.296-0.129-2.382,0.303-3.263,1.289c-0.862,0.986-1.394,2.48-1.598,4.422c-0.22,1.982,0.02,3.489,0.712,4.547
			c0.688,1.049,1.643,1.676,2.865,1.775c1.25,0.138,2.247-0.162,3.005-0.924c0.41-0.436,0.778-1.057,1.123-1.951l3.639,0.394
			c-0.524,1.881-1.487,3.347-2.909,4.396c-1.41,1.058-3.139,1.478-5.137,1.26c-2.509-0.271-4.366-1.283-5.604-3.056
			c-1.279-1.775-1.747-4.086-1.439-6.895C120.206,255.097,121.262,252.817,123.073,251.331z"/>
		<path fill="#FFFFFF" d="M139.104,268.509l-0.76-17.604l3.653-0.154l0.288,6.704l6.833-0.292l-0.281-6.7l3.652-0.146l0.745,17.569
			l-3.637,0.147l-0.347-7.842l-6.84,0.293l0.354,7.845L139.104,268.509z"/>
		<path fill="#FFFFFF" d="M171.782,262.985c-1.04,1.612-2.769,2.677-5.229,3.167c-2.491,0.505-4.5,0.236-6.076-0.86
			c-2.087-1.271-3.439-3.468-4.086-6.559c-0.629-3.171-0.256-5.722,1.187-7.65c1.019-1.612,2.769-2.659,5.229-3.163
			c2.461-0.52,4.488-0.229,6.072,0.84c2.059,1.238,3.416,3.424,4.047,6.582C173.568,258.445,173.183,261.004,171.782,262.985z
			 M168.979,260.847c0.635-1.227,0.749-2.815,0.343-4.748c-0.394-1.929-1.108-3.354-2.169-4.239
			c-1.053-0.887-2.299-1.198-3.715-0.895c-1.431,0.275-2.461,1.049-3.1,2.275c-0.619,1.234-0.746,2.826-0.372,4.768
			c0.396,1.924,1.152,3.337,2.225,4.223c1.047,0.873,2.308,1.16,3.72,0.881C167.33,262.814,168.363,262.072,168.979,260.847z"/>
		<path fill="#FFFFFF" d="M191.489,256.221c-0.734,1.755-2.304,3.077-4.642,3.979c-2.343,0.924-4.398,0.955-6.124,0.162
			c-2.261-0.934-3.972-2.879-5.093-5.805c-1.178-3.035-1.202-5.604-0.121-7.745c0.756-1.759,2.307-3.091,4.653-3.983
			c2.343-0.91,4.386-0.959,6.12-0.158c2.229,0.872,3.936,2.797,5.088,5.818C192.499,251.434,192.554,254.008,191.489,256.221z
			 M188.387,254.557c0.41-1.324,0.264-2.91-0.443-4.76c-0.705-1.845-1.66-3.104-2.851-3.794c-1.169-0.698-2.456-0.796-3.821-0.276
			c-1.36,0.513-2.244,1.447-2.658,2.762c-0.423,1.309-0.285,2.883,0.422,4.744c0.714,1.864,1.672,3.11,2.866,3.816
			c1.194,0.69,2.47,0.763,3.834,0.244C187.096,256.766,187.969,255.855,188.387,254.557z"/>
		<path fill="#FFFFFF" d="M190.117,239.156l3.194-1.818l7.114,12.539l7.65-4.313l1.577,2.746l-10.837,6.147L190.117,239.156z"/>
		<path fill="#FFFFFF" d="M219.387,220.543c0.906,0.201,1.685,0.689,2.38,1.486c0.712,0.813,1.079,1.641,1.11,2.484
			c0.008,0.462-0.107,1.006-0.359,1.641c0.89-0.362,1.747-0.414,2.559-0.2c0.816,0.24,1.543,0.744,2.217,1.491
			c0.691,0.792,1.105,1.673,1.26,2.641c0.109,0.62,0.105,1.258-0.024,1.857c-0.138,0.688-0.431,1.357-0.923,1.983
			c-0.441,0.616-1.014,1.219-1.685,1.812l-5.97,5.225l-11.622-13.192l6.399-5.646C216.361,220.744,217.908,220.208,219.387,220.543z
			 M212.986,227.729l2.563,2.926l3.234-2.832c0.568-0.508,0.924-1.002,1.1-1.555c0.158-0.527,0.004-1.08-0.492-1.632
			c-0.553-0.622-1.137-0.809-1.783-0.603c-0.527,0.236-1.107,0.618-1.75,1.179L212.986,227.729z M217.471,232.839l3.115,3.533
			l3.198-2.831c0.564-0.5,0.95-0.971,1.146-1.4c0.316-0.797,0.104-1.617-0.603-2.421c-0.588-0.683-1.282-0.919-2.078-0.675
			c-0.438,0.131-0.942,0.438-1.511,0.938L217.471,232.839z"/>
		<path fill="#FFFFFF" d="M241.685,216.514c0.204,1.899-0.512,3.816-2.106,5.741c-1.605,1.95-3.352,2.981-5.26,3.127
			c-2.445,0.292-4.848-0.568-7.285-2.599c-2.484-2.055-3.777-4.279-3.873-6.695c-0.204-1.896,0.502-3.813,2.111-5.738
			c1.616-1.941,3.379-2.963,5.279-3.135c2.355-0.316,4.792,0.544,7.26,2.606C240.248,211.844,241.539,214.087,241.685,216.514z
			 M238.159,216.58c-0.292-1.345-1.176-2.657-2.687-3.924c-1.511-1.258-2.973-1.912-4.35-1.949
			c-1.369-0.027-2.531,0.521-3.447,1.641c-0.942,1.113-1.269,2.348-1.008,3.708c0.275,1.355,1.182,2.654,2.685,3.935
			c1.53,1.266,2.985,1.912,4.354,1.924c1.4,0.017,2.536-0.523,3.487-1.637C238.119,219.154,238.439,217.92,238.159,216.58z"/>
		<path fill="#FFFFFF" d="M234.326,198.794l2.152-3.565l18.291,3.752l-2.063,3.418l-3.695-0.871l-3.363,5.533l2.484,2.895
			l-1.98,3.316L234.326,198.794z M243.569,204.658l2.335-3.867l-7.087-1.682L243.569,204.658z"/>
		<path fill="#FFFFFF" d="M244.938,178.295c0.517-0.488,1.093-0.845,1.775-1.057c0.552-0.17,1.12-0.264,1.688-0.26
			c0.61,0,1.218,0.142,1.86,0.41c0.754,0.325,1.428,0.824,2.035,1.514c0.572,0.698,0.844,1.569,0.804,2.58
			c0.589-0.613,1.255-0.971,1.94-1.058c0.671-0.083,1.578,0.11,2.729,0.583l1.101,0.453c0.734,0.301,1.25,0.467,1.538,0.529
			c0.442,0.071,0.845,0,1.198-0.252l0.406,0.162l-1.538,3.777c-0.406-0.074-0.737-0.107-0.984-0.146
			c-0.482-0.102-0.975-0.244-1.456-0.43l-1.512-0.611c-1.048-0.414-1.82-0.523-2.307-0.308c-0.496,0.194-0.926,0.758-1.324,1.712
			l-1.364,3.332l6.399,2.623l-1.38,3.313l-16.28-6.692l3.203-7.788C243.943,179.584,244.43,178.785,244.938,178.295z
			 M244.454,186.301l4.379,1.82l1.522-3.666c0.28-0.719,0.435-1.32,0.418-1.747c-0.065-0.78-0.527-1.345-1.462-1.708
			c-0.975-0.41-1.778-0.375-2.363,0.1c-0.342,0.271-0.658,0.768-0.95,1.459L244.454,186.301z"/>
		<path fill="#FFFFFF" d="M249.213,163.037c0.691-1.104,1.641-1.904,2.875-2.383c1.013-0.395,2.027-0.568,3.063-0.544
			c1.046,0.017,2.005,0.138,2.907,0.348c2.287,0.552,4.102,1.475,5.457,2.788c1.827,1.731,2.434,3.908,1.795,6.491l-1.795,7.379
			l-17.088-4.142l1.771-7.383C248.475,164.535,248.808,163.688,249.213,163.037z M250.246,170.229l11.153,2.705l0.796-3.315
			c0.402-1.685-0.142-3.057-1.641-4.125c-0.824-0.584-1.857-1.03-3.131-1.349c-1.75-0.423-3.15-0.462-4.193-0.146
			c-1.072,0.327-1.813,1.302-2.215,2.929L250.246,170.229z"/>
	</g>
</g>
</svg>
