<svg xmlns="http://www.w3.org/2000/svg" xmlns:xlink="http://www.w3.org/1999/xlink" version="1.1" x="0px" y="0px" width="100px" height="100px" viewBox="0 0 100 100" enable-background="new 0 0 100 100" xml:space="preserve">
<g id="Captions" display="none">
</g>
<g id="Your_Icon">
	<path d="M96.675,80.675L75.353,59.353c3.191-5.829,4.901-12.393,4.901-19.225c0-10.721-4.175-20.8-11.756-28.376   C60.922,4.171,50.843,0,40.125,0c-10.721,0-20.8,4.171-28.383,11.752c-15.644,15.65-15.644,41.111,0.002,56.755   c7.581,7.58,17.659,11.752,28.379,11.752c6.83,0,13.392-1.71,19.222-4.897l21.322,21.322c2.207,2.211,5.107,3.316,8.004,3.316   s5.797-1.105,8.004-3.316C101.097,92.265,101.097,85.094,96.675,80.675z M19.747,60.503c-11.232-11.232-11.232-29.511,0-40.747   c5.443-5.439,12.68-8.436,20.378-8.436c7.694,0,14.928,2.996,20.369,8.436c5.443,5.439,8.439,12.677,8.439,20.372   c0,7.698-2.996,14.932-8.439,20.375c-5.441,5.439-12.675,8.435-20.371,8.435S25.19,65.942,19.747,60.503z"/>
</g>
</svg>